<mxfile host="app.diagrams.net" modified="2023-09-14T05:24:53.190Z" agent="Mozilla/5.0 (Windows NT 10.0; Win64; x64) AppleWebKit/537.36 (KHTML, like Gecko) Chrome/113.0.0.0 Safari/537.36" version="21.7.5" etag="F1lDyY7HzEbvieJvVFW5" type="github">
  <diagram name="第 1 页" id="1qpJ4MJk0p95kua4kM4g">
    <mxGraphModel>
      <root>
        <mxCell id="0" />
        <mxCell id="1" parent="0" />
      </root>
    </mxGraphModel>
  </diagram>
</mxfile>
